# xmcd
#
# Track frame offsets:
#	150
#	14669
#	32257
#	56254
#	74488
#	88403
#	103177
#	118208
#	130798
#	142395
#	159905
#
# Disc length: 2303 seconds
#
# Revision: 0
# Processed by: cddbd v1.5.2PL0 Copyright (c) Steve Scherf et al.
# Submitted via: dBpowerAMP V4.0
#
DISCID=9e08fd0b
DTITLE=Lonestar - My Christmas List
DYEAR=2007
DGENRE=Christmas
TTITLE0=Joy To The World
TTITLE1=Away In A Manger
TTITLE2=Silent Night
TTITLE3=O Come All Ye Faithful
TTITLE4=Up On A Housetop
TTITLE5=Deck The Halls
TTITLE6=That's What Christmas Is For
TTITLE7=Jingle Bells
TTITLE8=We Wish You A Merry Christmas
TTITLE9=My Christmas List
TTITLE10=White Christmas
EXTD=
EXTT0=
EXTT1=
EXTT2=
EXTT3=
EXTT4=
EXTT5=
EXTT6=
EXTT7=
EXTT8=
EXTT9=
EXTT10=
PLAYORDER=
